<svg width="90" height="90" viewBox="0 0 90 90" fill="none" xmlns="http://www.w3.org/2000/svg">
<style>
  path { fill: #000; }
  @media (prefers-color-scheme: dark) {
    path { fill: #fff; }
  }
</style>
<g clip-path="url(#clip0_11652_1534)">
<path d="M65.1944 36.6373C65.3314 36.9681 65.4601 37.3019 65.5805 37.6383L87.3705 29.8416C87.1227 29.1491 86.8577 28.462 86.5756 27.7809C86.2935 27.0999 85.995 26.4267 85.6805 25.7617L64.7596 35.6566C64.9124 35.9795 65.0573 36.3065 65.1944 36.6373Z" fill="black"/>
<path d="M65.5805 52.3633C65.4601 52.6997 65.3314 53.0335 65.1944 53.3643C65.0573 53.6951 64.9124 54.0221 64.7596 54.345L85.6805 64.2399C85.995 63.5749 86.2935 62.9017 86.5756 62.2207C86.8577 61.5397 87.1227 60.8525 87.3705 60.16L65.5805 52.3633Z" fill="black"/>
<path d="M62.5568 31.9815C62.983 32.5561 63.3807 33.1514 63.7485 33.765L83.5988 21.8672C82.8415 20.6038 82.0227 19.3784 81.1453 18.1953L62.5568 31.9815Z" fill="black"/>
<path d="M63.7485 56.2383C63.3807 56.8519 62.983 57.4472 62.5568 58.0218L81.1453 71.808C82.0227 70.6249 82.8415 69.3995 83.5988 68.1361L63.7485 56.2383Z" fill="black"/>
<path d="M60.4562 29.5438C60.7094 29.7969 60.9561 30.056 61.196 30.3207L78.3437 14.7789C77.8497 14.2339 77.342 13.7005 76.8208 13.1793C76.2996 12.6581 75.7661 12.1503 75.2211 11.6563L59.6793 28.804C59.944 29.0439 60.2031 29.2906 60.4562 29.5438Z" fill="black"/>
<path d="M61.1961 59.6797C60.9562 59.9444 60.7094 60.2035 60.4562 60.4566C60.2031 60.7098 59.9441 60.9565 59.6793 61.1964L75.2211 78.3441C75.7661 77.8501 76.2995 77.3423 76.8207 76.8211C77.3419 76.2999 77.8497 75.7665 78.3437 75.2215L61.1961 59.6797Z" fill="black"/>
<path d="M56.2378 26.2526C56.8514 26.6204 57.4467 27.0181 58.0213 27.4443L71.8075 8.85579C70.6244 7.97838 69.399 7.15958 68.1356 6.40235L56.2378 26.2526Z" fill="black"/>
<path d="M58.0213 62.5547C57.4467 62.9809 56.8514 63.3786 56.2378 63.7464L68.1356 83.5967C69.399 82.8395 70.6244 82.0207 71.8075 81.1432L58.0213 62.5547Z" fill="black"/>
<path d="M53.3654 24.805C53.6962 24.9421 54.0232 25.087 54.3461 25.2398L64.241 4.31887C63.576 4.00437 62.9028 3.70589 62.2218 3.42381C61.5408 3.14173 60.8536 2.87672 60.1611 2.62891L52.3644 24.4189C52.7008 24.5393 53.0346 24.668 53.3654 24.805Z" fill="black"/>
<path d="M54.3461 64.7578C54.0232 64.9106 53.6962 65.0556 53.3654 65.1926C53.0346 65.3296 52.7008 65.4583 52.3644 65.5787L60.161 87.3687C60.8536 87.1209 61.5407 86.8559 62.2217 86.5738C62.9028 86.2917 63.576 85.9932 64.241 85.6787L54.3461 64.7578Z" fill="black"/>
<path d="M48.2081 23.3806C48.9158 23.4856 49.6179 23.6253 50.3119 23.7991L55.9351 1.34982C54.5063 0.991933 53.0609 0.704407 51.6039 0.488285L48.2081 23.3806Z" fill="black"/>
<path d="M50.3119 66.2031C49.6179 66.3769 48.9158 66.5166 48.2081 66.6216L51.6039 89.5139C53.0608 89.2978 54.5063 89.0103 55.9351 88.6524L50.3119 66.2031Z" fill="black"/>
<path d="M45.001 23.1429C45.3591 23.1429 45.7167 23.1517 46.0735 23.1692L47.209 0.054206C46.4743 0.0181142 45.7381 3.86977e-06 45.001 3.83755e-06C39.0915 2.69439e-06 33.2399 1.16396 27.7803 3.42542C22.3206 5.68688 17.3598 9.00156 13.1812 13.1802C9.00258 17.3588 5.68788 22.3196 3.42638 27.7792C1.16498 33.2389 0.000982483 39.0905 0.000982225 45C0.000981967 50.9095 1.16498 56.7611 3.42638 62.2208C5.68788 67.6804 9.00258 72.6412 13.1812 76.8198C17.3598 80.9984 22.3206 84.3131 27.7803 86.5746C33.2399 88.836 39.0915 90 45.001 90C45.7381 90 46.4743 89.9819 47.209 89.9458L46.0735 66.8308C45.7166 66.8483 45.359 66.8571 45.001 66.8571C42.1307 66.8571 39.2885 66.2918 36.6366 65.1934C33.9848 64.0949 31.5753 62.485 29.5457 60.4553C27.516 58.4257 25.9061 56.0162 24.8076 53.3644C23.7092 50.7125 23.1439 47.8703 23.1439 45C23.1439 42.1297 23.7092 39.2875 24.8076 36.6356C25.9061 33.9838 27.516 31.5743 29.5457 29.5447C31.5753 27.515 33.9848 25.9051 36.6366 24.8066C39.2885 23.7082 42.1307 23.1429 45.001 23.1429Z" fill="black"/>
</g>
<defs>
<clipPath id="clip0_11652_1534">
<rect width="90" height="90.001" fill="white" transform="translate(90.001 3.93407e-06) rotate(90)"/>
</clipPath>
</defs>
</svg>
